# MagicaVoxel @ Ephtracy

# group
g RocketLauncher

# material
mtllib RocketLauncher.mtl
usemtl palette

# normals
vn -1 0 0
vn 1 0 0
vn 0 0 1
vn 0 0 -1
vn 0 -1 0
vn 0 1 0

# texcoords
vt 0.970703 0.5
vt 0.974609 0.5
vt 0.982422 0.5
vt 0.986328 0.5
vt 0.994141 0.5

# verts
v -2 2 8
v -2 2 7
v -2 3 7
v -2 3 2
v -2 3 1
v -2 3 -1
v -2 3 -2
v -2 3 -7
v -2 4 -7
v -2 4 -11
v -2 6 7
v -2 6 2
v -2 6 1
v -2 6 -1
v -2 6 -2
v -2 6 -11
v -2 7 8
v -2 7 7
v -1 0 5
v -1 0 4
v -1 1 4
v -1 1 2
v -1 2 7
v -1 2 5
v -1 2 2
v -1 2 -11
v -1 3 7
v -1 3 2
v -1 3 1
v -1 3 -1
v -1 3 -2
v -1 3 -7
v -1 3 -11
v -1 3 -13
v -1 4 -7
v -1 4 -11
v -1 6 7
v -1 6 2
v -1 6 1
v -1 6 -1
v -1 6 -2
v -1 6 -4
v -1 6 -5
v -1 6 -6
v -1 6 -7
v -1 6 -11
v -1 6 -13
v -1 7 7
v -1 7 -4
v -1 7 -5
v -1 7 -6
v -1 7 -7
v -1 7 -11
v 2 0 5
v 2 0 4
v 2 1 4
v 2 1 2
v 2 2 7
v 2 2 5
v 2 2 2
v 2 2 -11
v 2 3 7
v 2 3 2
v 2 3 1
v 2 3 -1
v 2 3 -2
v 2 3 -7
v 2 3 -11
v 2 3 -13
v 2 4 -7
v 2 4 -11
v 2 6 7
v 2 6 2
v 2 6 1
v 2 6 -1
v 2 6 -2
v 2 6 -4
v 2 6 -5
v 2 6 -6
v 2 6 -7
v 2 6 -11
v 2 6 -13
v 2 7 7
v 2 7 -4
v 2 7 -5
v 2 7 -6
v 2 7 -7
v 2 7 -11
v 3 2 8
v 3 2 7
v 3 3 7
v 3 3 2
v 3 3 1
v 3 3 -1
v 3 3 -2
v 3 3 -7
v 3 4 -7
v 3 4 -11
v 3 6 7
v 3 6 2
v 3 6 1
v 3 6 -1
v 3 6 -2
v 3 6 -11
v 3 7 8
v 3 7 7
v -2 2 8
v -2 7 8
v -1 3 8
v -1 6 8
v 2 3 8
v 2 6 8
v 3 2 8
v 3 7 8
v -1 0 5
v -1 2 5
v 2 0 5
v 2 2 5
v -2 2 7
v -2 3 7
v -2 6 7
v -2 7 7
v -1 2 7
v -1 3 7
v -1 6 7
v -1 7 7
v 2 2 7
v 2 3 7
v 2 6 7
v 2 7 7
v 3 2 7
v 3 3 7
v 3 6 7
v 3 7 7
v -1 0 4
v -1 1 4
v 2 0 4
v 2 1 4
v -1 1 2
v -1 2 2
v 2 1 2
v 2 2 2
v -2 3 -7
v -2 4 -7
v -1 3 -7
v -1 4 -7
v 2 3 -7
v 2 4 -7
v 3 3 -7
v 3 4 -7
v -2 4 -11
v -2 6 -11
v -1 2 -11
v -1 3 -11
v -1 4 -11
v -1 6 -11
v -1 7 -11
v 2 2 -11
v 2 3 -11
v 2 4 -11
v 2 6 -11
v 2 7 -11
v 3 4 -11
v 3 6 -11
v -1 3 -13
v -1 6 -13
v 0 4 -13
v 0 5 -13
v 1 4 -13
v 1 5 -13
v 2 3 -13
v 2 6 -13
v -1 0 5
v 2 0 5
v -1 0 4
v 2 0 4
v -1 1 4
v 2 1 4
v -1 1 2
v 2 1 2
v -2 2 8
v 3 2 8
v -2 2 7
v -1 2 7
v 2 2 7
v 3 2 7
v -1 2 5
v 2 2 5
v -1 2 2
v 2 2 2
v -1 2 -11
v 2 2 -11
v -2 3 7
v -1 3 7
v 2 3 7
v 3 3 7
v -2 3 2
v -1 3 2
v 2 3 2
v 3 3 2
v -2 3 1
v -1 3 1
v 2 3 1
v 3 3 1
v -2 3 -1
v -1 3 -1
v 2 3 -1
v 3 3 -1
v -2 3 -2
v -1 3 -2
v 2 3 -2
v 3 3 -2
v -2 3 -7
v -1 3 -7
v 2 3 -7
v 3 3 -7
v -1 3 -11
v 2 3 -11
v -1 3 -13
v 2 3 -13
v -2 4 -7
v -1 4 -7
v 2 4 -7
v 3 4 -7
v -2 4 -11
v -1 4 -11
v 2 4 -11
v 3 4 -11
v -2 6 7
v -1 6 7
v 2 6 7
v 3 6 7
v -2 6 2
v -1 6 2
v 2 6 2
v 3 6 2
v -2 6 1
v -1 6 1
v 2 6 1
v 3 6 1
v -2 6 -1
v -1 6 -1
v 2 6 -1
v 3 6 -1
v -2 6 -2
v -1 6 -2
v 2 6 -2
v 3 6 -2
v -1 6 -4
v 2 6 -4
v -1 6 -5
v 2 6 -5
v -1 6 -6
v 2 6 -6
v -1 6 -7
v 2 6 -7
v -2 6 -11
v -1 6 -11
v 2 6 -11
v 3 6 -11
v -1 6 -13
v 2 6 -13
v -2 7 8
v 3 7 8
v -2 7 7
v -1 7 7
v 2 7 7
v 3 7 7
v -1 7 -4
v 2 7 -4
v -1 7 -5
v 2 7 -5
v -1 7 -6
v 2 7 -6
v -1 7 -7
v 2 7 -7
v -1 7 -11
v 2 7 -11

# faces
f 3/4/1 2/4/1 1/4/1
f 9/3/1 8/3/1 7/3/1
f 11/4/1 3/4/1 1/4/1
f 11/3/1 4/3/1 3/3/1
f 12/4/1 5/4/1 4/4/1
f 12/3/1 4/3/1 11/3/1
f 13/1/1 6/1/1 5/1/1
f 13/4/1 5/4/1 12/4/1
f 14/4/1 7/4/1 6/4/1
f 14/1/1 6/1/1 13/1/1
f 15/3/1 10/3/1 9/3/1
f 15/4/1 7/4/1 14/4/1
f 15/3/1 9/3/1 7/3/1
f 16/3/1 10/3/1 15/3/1
f 17/4/1 11/4/1 1/4/1
f 18/4/1 11/4/1 17/4/1
f 21/3/1 20/3/1 19/3/1
f 24/3/1 21/3/1 19/3/1
f 24/3/1 22/3/1 21/3/1
f 25/3/1 22/3/1 24/3/1
f 27/3/1 24/3/1 23/3/1
f 27/3/1 26/3/1 25/3/1
f 27/3/1 25/3/1 24/3/1
f 28/3/1 26/3/1 27/3/1
f 29/3/1 26/3/1 28/3/1
f 30/3/1 26/3/1 29/3/1
f 31/3/1 26/3/1 30/3/1
f 32/3/1 26/3/1 31/3/1
f 33/3/1 26/3/1 32/3/1
f 35/3/1 33/3/1 32/3/1
f 36/4/1 34/4/1 33/4/1
f 36/3/1 33/3/1 35/3/1
f 46/4/1 34/4/1 36/4/1
f 47/4/1 34/4/1 46/4/1
f 48/3/1 38/3/1 37/3/1
f 48/3/1 39/3/1 38/3/1
f 48/3/1 40/3/1 39/3/1
f 48/3/1 41/3/1 40/3/1
f 48/3/1 42/3/1 41/3/1
f 49/4/1 43/4/1 42/4/1
f 49/3/1 42/3/1 48/3/1
f 50/1/1 44/1/1 43/1/1
f 50/4/1 43/4/1 49/4/1
f 51/4/1 45/4/1 44/4/1
f 51/1/1 44/1/1 50/1/1
f 52/3/1 46/3/1 45/3/1
f 52/4/1 45/4/1 51/4/1
f 53/3/1 46/3/1 52/3/1
f 54/3/2 55/3/2 56/3/2
f 54/3/2 56/3/2 59/3/2
f 56/3/2 57/3/2 59/3/2
f 59/3/2 57/3/2 60/3/2
f 58/3/2 59/3/2 62/3/2
f 60/3/2 61/3/2 62/3/2
f 59/3/2 60/3/2 62/3/2
f 62/3/2 61/3/2 63/3/2
f 63/3/2 61/3/2 64/3/2
f 64/3/2 61/3/2 65/3/2
f 65/3/2 61/3/2 66/3/2
f 66/3/2 61/3/2 67/3/2
f 67/3/2 61/3/2 68/3/2
f 67/3/2 68/3/2 70/3/2
f 68/4/2 69/4/2 71/4/2
f 70/3/2 68/3/2 71/3/2
f 71/4/2 69/4/2 81/4/2
f 81/4/2 69/4/2 82/4/2
f 72/3/2 73/3/2 83/3/2
f 73/3/2 74/3/2 83/3/2
f 74/3/2 75/3/2 83/3/2
f 75/3/2 76/3/2 83/3/2
f 76/3/2 77/3/2 83/3/2
f 77/4/2 78/4/2 84/4/2
f 83/3/2 77/3/2 84/3/2
f 78/1/2 79/1/2 85/1/2
f 84/4/2 78/4/2 85/4/2
f 79/4/2 80/4/2 86/4/2
f 85/1/2 79/1/2 86/1/2
f 80/3/2 81/3/2 87/3/2
f 86/4/2 80/4/2 87/4/2
f 87/3/2 81/3/2 88/3/2
f 89/4/2 90/4/2 91/4/2
f 95/3/2 96/3/2 97/3/2
f 89/4/2 91/4/2 99/4/2
f 91/3/2 92/3/2 99/3/2
f 92/4/2 93/4/2 100/4/2
f 99/3/2 92/3/2 100/3/2
f 93/1/2 94/1/2 101/1/2
f 100/4/2 93/4/2 101/4/2
f 94/4/2 95/4/2 102/4/2
f 101/1/2 94/1/2 102/1/2
f 97/3/2 98/3/2 103/3/2
f 102/4/2 95/4/2 103/4/2
f 95/3/2 97/3/2 103/3/2
f 103/3/2 98/3/2 104/3/2
f 89/4/2 99/4/2 105/4/2
f 105/4/2 99/4/2 106/4/2
f 109/4/3 108/4/3 107/4/3
f 110/4/3 108/4/3 109/4/3
f 111/4/3 109/4/3 107/4/3
f 111/5/3 110/5/3 109/5/3
f 112/4/3 108/4/3 110/4/3
f 112/5/3 110/5/3 111/5/3
f 113/4/3 111/4/3 107/4/3
f 113/4/3 112/4/3 111/4/3
f 114/4/3 108/4/3 112/4/3
f 114/4/3 112/4/3 113/4/3
f 117/3/3 116/3/3 115/3/3
f 118/3/3 116/3/3 117/3/3
f 119/4/4 120/4/4 123/4/4
f 123/4/4 120/4/4 124/4/4
f 121/4/4 122/4/4 125/4/4
f 125/4/4 122/4/4 126/4/4
f 127/4/4 128/4/4 131/4/4
f 131/4/4 128/4/4 132/4/4
f 129/4/4 130/4/4 133/4/4
f 133/4/4 130/4/4 134/4/4
f 135/3/4 136/3/4 137/3/4
f 137/3/4 136/3/4 138/3/4
f 139/3/4 140/3/4 141/3/4
f 141/3/4 140/3/4 142/3/4
f 143/3/4 144/3/4 145/3/4
f 145/3/4 144/3/4 146/3/4
f 147/3/4 148/3/4 149/3/4
f 149/3/4 148/3/4 150/3/4
f 151/3/4 152/3/4 155/3/4
f 155/3/4 152/3/4 156/3/4
f 153/3/4 154/3/4 158/3/4
f 158/3/4 154/3/4 159/3/4
f 156/3/4 157/3/4 161/3/4
f 161/3/4 157/3/4 162/3/4
f 160/3/4 161/3/4 163/3/4
f 163/3/4 161/3/4 164/3/4
f 165/4/4 166/4/4 167/4/4
f 167/4/4 166/4/4 168/4/4
f 165/4/4 167/4/4 169/4/4
f 167/5/4 168/5/4 169/5/4
f 168/4/4 166/4/4 170/4/4
f 169/5/4 168/5/4 170/5/4
f 165/4/4 169/4/4 171/4/4
f 169/4/4 170/4/4 171/4/4
f 170/4/4 166/4/4 172/4/4
f 171/4/4 170/4/4 172/4/4
f 175/3/5 174/3/5 173/3/5
f 176/3/5 174/3/5 175/3/5
f 179/3/5 178/3/5 177/3/5
f 180/3/5 178/3/5 179/3/5
f 183/4/5 182/4/5 181/4/5
f 184/4/5 182/4/5 183/4/5
f 185/4/5 182/4/5 184/4/5
f 186/4/5 182/4/5 185/4/5
f 187/3/5 185/3/5 184/3/5
f 188/3/5 185/3/5 187/3/5
f 191/3/5 190/3/5 189/3/5
f 192/3/5 190/3/5 191/3/5
f 197/3/5 194/3/5 193/3/5
f 198/3/5 194/3/5 197/3/5
f 199/3/5 196/3/5 195/3/5
f 200/3/5 196/3/5 199/3/5
f 201/4/5 198/4/5 197/4/5
f 202/4/5 198/4/5 201/4/5
f 203/4/5 200/4/5 199/4/5
f 204/4/5 200/4/5 203/4/5
f 205/1/5 202/1/5 201/1/5
f 206/1/5 202/1/5 205/1/5
f 207/1/5 204/1/5 203/1/5
f 208/1/5 204/1/5 207/1/5
f 209/4/5 206/4/5 205/4/5
f 210/4/5 206/4/5 209/4/5
f 211/4/5 208/4/5 207/4/5
f 212/4/5 208/4/5 211/4/5
f 213/3/5 210/3/5 209/3/5
f 214/3/5 210/3/5 213/3/5
f 215/3/5 212/3/5 211/3/5
f 216/3/5 212/3/5 215/3/5
f 219/4/5 218/4/5 217/4/5
f 220/4/5 218/4/5 219/4/5
f 225/3/5 222/3/5 221/3/5
f 226/3/5 222/3/5 225/3/5
f 227/3/5 224/3/5 223/3/5
f 228/3/5 224/3/5 227/3/5
f 229/3/6 230/3/6 233/3/6
f 233/3/6 230/3/6 234/3/6
f 231/3/6 232/3/6 235/3/6
f 235/3/6 232/3/6 236/3/6
f 233/4/6 234/4/6 237/4/6
f 237/4/6 234/4/6 238/4/6
f 235/4/6 236/4/6 239/4/6
f 239/4/6 236/4/6 240/4/6
f 237/1/6 238/1/6 241/1/6
f 241/1/6 238/1/6 242/1/6
f 239/1/6 240/1/6 243/1/6
f 243/1/6 240/1/6 244/1/6
f 241/4/6 242/4/6 245/4/6
f 245/4/6 242/4/6 246/4/6
f 243/4/6 244/4/6 247/4/6
f 247/4/6 244/4/6 248/4/6
f 245/3/6 246/3/6 249/3/6
f 247/3/6 248/3/6 250/3/6
f 245/3/6 249/3/6 251/3/6
f 250/3/6 248/3/6 252/3/6
f 245/3/6 251/3/6 253/3/6
f 252/3/6 248/3/6 254/3/6
f 245/3/6 253/3/6 255/3/6
f 254/3/6 248/3/6 256/3/6
f 245/3/6 255/3/6 257/3/6
f 257/3/6 255/3/6 258/3/6
f 256/3/6 248/3/6 259/3/6
f 259/3/6 248/3/6 260/3/6
f 258/4/6 259/4/6 261/4/6
f 261/4/6 259/4/6 262/4/6
f 263/4/6 264/4/6 265/4/6
f 265/4/6 264/4/6 266/4/6
f 266/4/6 264/4/6 267/4/6
f 267/4/6 264/4/6 268/4/6
f 266/3/6 267/3/6 269/3/6
f 269/3/6 267/3/6 270/3/6
f 269/4/6 270/4/6 271/4/6
f 271/4/6 270/4/6 272/4/6
f 271/1/6 272/1/6 273/1/6
f 273/1/6 272/1/6 274/1/6
f 273/4/6 274/4/6 275/4/6
f 275/4/6 274/4/6 276/4/6
f 275/3/6 276/3/6 277/3/6
f 277/3/6 276/3/6 278/3/6
