# MagicaVoxel @ Ephtracy

# group
g Pistol1

# material
mtllib Pistol1.mtl
usemtl palette

# normals
vn -1 0 0
vn 1 0 0
vn 0 0 1
vn 0 0 -1
vn 0 -1 0
vn 0 1 0

# texcoords
vt 0.537109 0.5
vt 0.841797 0.5
vt 0.970703 0.5
vt 0.978516 0.5
vt 0.982422 0.5
vt 0.986328 0.5

# verts
v -2 0 -3
v -2 0 -5
v -2 2 3
v -2 2 1
v -2 2 -2
v -2 2 -3
v -2 3 4
v -2 3 3
v -2 3 1
v -2 3 -2
v -2 3 -3
v -2 3 -5
v -2 4 6
v -2 4 5
v -2 4 4
v -2 4 3
v -2 4 1
v -2 4 -2
v -2 4 -3
v -2 5 2
v -2 5 -1
v -2 6 6
v -2 6 5
v -2 6 2
v -2 6 -1
v -2 6 -5
v 0 0 -3
v 0 0 -5
v 0 2 3
v 0 2 1
v 0 2 -2
v 0 2 -3
v 0 3 4
v 0 3 3
v 0 3 1
v 0 3 -2
v 0 3 -3
v 0 3 -5
v 0 4 6
v 0 4 5
v 0 4 4
v 0 4 3
v 0 4 1
v 0 4 -2
v 0 4 -3
v 0 5 2
v 0 5 -1
v 0 6 6
v 0 6 5
v 0 6 2
v 0 6 -1
v 0 6 -5
v -2 4 6
v -2 6 6
v 0 4 6
v 0 6 6
v -2 3 4
v -2 4 4
v 0 3 4
v 0 4 4
v -2 2 3
v -2 3 3
v 0 2 3
v 0 3 3
v -2 2 -2
v -2 3 -2
v 0 2 -2
v 0 3 -2
v -2 0 -3
v -2 2 -3
v 0 0 -3
v 0 2 -3
v -2 2 1
v -2 3 1
v 0 2 1
v 0 3 1
v -2 0 -5
v -2 3 -5
v -2 6 -5
v 0 0 -5
v 0 3 -5
v 0 6 -5
v -2 0 -3
v 0 0 -3
v -2 0 -5
v 0 0 -5
v -2 2 3
v 0 2 3
v -2 2 1
v 0 2 1
v -2 2 -2
v 0 2 -2
v -2 2 -3
v 0 2 -3
v -2 3 4
v 0 3 4
v -2 3 3
v 0 3 3
v -2 3 1
v 0 3 1
v -2 3 -2
v 0 3 -2
v -2 4 6
v 0 4 6
v -2 4 5
v 0 4 5
v -2 4 4
v 0 4 4
v -2 6 6
v 0 6 6
v -2 6 5
v 0 6 5
v -2 6 2
v 0 6 2
v -2 6 -1
v 0 6 -1
v -2 6 -5
v 0 6 -5

# faces
f 6/1/1 2/1/1 1/1/1
f 8/4/1 4/4/1 3/4/1
f 9/4/1 4/4/1 8/4/1
f 10/5/1 6/5/1 5/5/1
f 11/1/1 2/1/1 6/1/1
f 11/5/1 6/5/1 10/5/1
f 12/1/1 2/1/1 11/1/1
f 15/2/1 8/2/1 7/2/1
f 16/4/1 9/4/1 8/4/1
f 16/2/1 8/2/1 15/2/1
f 17/3/1 10/3/1 9/3/1
f 17/4/1 9/4/1 16/4/1
f 18/5/1 11/5/1 10/5/1
f 18/3/1 10/3/1 17/3/1
f 19/3/1 12/3/1 11/3/1
f 19/5/1 11/5/1 18/5/1
f 20/3/1 15/3/1 14/3/1
f 20/3/1 16/3/1 15/3/1
f 20/3/1 19/3/1 18/3/1
f 20/3/1 17/3/1 16/3/1
f 20/3/1 18/3/1 17/3/1
f 21/3/1 19/3/1 20/3/1
f 22/6/1 14/6/1 13/6/1
f 23/3/1 20/3/1 14/3/1
f 23/6/1 14/6/1 22/6/1
f 24/5/1 21/5/1 20/5/1
f 24/3/1 20/3/1 23/3/1
f 25/3/1 19/3/1 21/3/1
f 25/5/1 21/5/1 24/5/1
f 26/3/1 12/3/1 19/3/1
f 26/3/1 19/3/1 25/3/1
f 27/1/2 28/1/2 32/1/2
f 29/4/2 30/4/2 34/4/2
f 34/4/2 30/4/2 35/4/2
f 31/5/2 32/5/2 36/5/2
f 32/1/2 28/1/2 37/1/2
f 36/5/2 32/5/2 37/5/2
f 37/1/2 28/1/2 38/1/2
f 33/2/2 34/2/2 41/2/2
f 34/4/2 35/4/2 42/4/2
f 41/2/2 34/2/2 42/2/2
f 35/3/2 36/3/2 43/3/2
f 42/4/2 35/4/2 43/4/2
f 36/5/2 37/5/2 44/5/2
f 43/3/2 36/3/2 44/3/2
f 37/3/2 38/3/2 45/3/2
f 44/5/2 37/5/2 45/5/2
f 40/3/2 41/3/2 46/3/2
f 41/3/2 42/3/2 46/3/2
f 44/3/2 45/3/2 46/3/2
f 42/3/2 43/3/2 46/3/2
f 43/3/2 44/3/2 46/3/2
f 46/3/2 45/3/2 47/3/2
f 39/6/2 40/6/2 48/6/2
f 40/3/2 46/3/2 49/3/2
f 48/6/2 40/6/2 49/6/2
f 46/5/2 47/5/2 50/5/2
f 49/3/2 46/3/2 50/3/2
f 47/3/2 45/3/2 51/3/2
f 50/5/2 47/5/2 51/5/2
f 45/3/2 38/3/2 52/3/2
f 51/3/2 45/3/2 52/3/2
f 55/6/3 54/6/3 53/6/3
f 56/6/3 54/6/3 55/6/3
f 59/2/3 58/2/3 57/2/3
f 60/2/3 58/2/3 59/2/3
f 63/4/3 62/4/3 61/4/3
f 64/4/3 62/4/3 63/4/3
f 67/5/3 66/5/3 65/5/3
f 68/5/3 66/5/3 67/5/3
f 71/1/3 70/1/3 69/1/3
f 72/1/3 70/1/3 71/1/3
f 73/4/4 74/4/4 75/4/4
f 75/4/4 74/4/4 76/4/4
f 77/1/4 78/1/4 80/1/4
f 78/3/4 79/3/4 81/3/4
f 80/1/4 78/1/4 81/1/4
f 81/3/4 79/3/4 82/3/4
f 85/1/5 84/1/5 83/1/5
f 86/1/5 84/1/5 85/1/5
f 89/4/5 88/4/5 87/4/5
f 90/4/5 88/4/5 89/4/5
f 93/5/5 92/5/5 91/5/5
f 94/5/5 92/5/5 93/5/5
f 97/2/5 96/2/5 95/2/5
f 98/2/5 96/2/5 97/2/5
f 101/3/5 100/3/5 99/3/5
f 102/3/5 100/3/5 101/3/5
f 105/6/5 104/6/5 103/6/5
f 106/6/5 104/6/5 105/6/5
f 107/3/5 106/3/5 105/3/5
f 108/3/5 106/3/5 107/3/5
f 109/6/6 110/6/6 111/6/6
f 111/6/6 110/6/6 112/6/6
f 111/3/6 112/3/6 113/3/6
f 113/3/6 112/3/6 114/3/6
f 113/5/6 114/5/6 115/5/6
f 115/5/6 114/5/6 116/5/6
f 115/3/6 116/3/6 117/3/6
f 117/3/6 116/3/6 118/3/6
