# MagicaVoxel @ Ephtracy

# group
g Pickup1

# material
mtllib Pickup1.mtl
usemtl palette

# normals
vn -1 0 0
vn 1 0 0
vn 0 0 1
vn 0 0 -1
vn 0 -1 0
vn 0 1 0

# texcoords
vt 0.841797 0.5
vt 0.919922 0.5
vt 0.974609 0.5

# verts
v -3 0 3
v -3 0 -3
v -3 1 3
v -3 1 -3
v -3 5 3
v -3 5 -3
v -3 6 3
v -3 6 -3
v -2 1 2
v -2 1 -2
v -2 2 2
v -2 2 1
v -2 2 -1
v -2 2 -2
v -2 4 2
v -2 4 1
v -2 4 -1
v -2 4 -2
v -2 5 2
v -2 5 -2
v 2 1 2
v 2 1 -2
v 2 2 2
v 2 2 1
v 2 2 -1
v 2 2 -2
v 2 4 2
v 2 4 1
v 2 4 -1
v 2 4 -2
v 2 5 2
v 2 5 -2
v 3 0 3
v 3 0 -3
v 3 1 3
v 3 1 -3
v 3 5 3
v 3 5 -3
v 3 6 3
v 3 6 -3
v -3 0 3
v -3 1 3
v -3 5 3
v -3 6 3
v 3 0 3
v 3 1 3
v 3 5 3
v 3 6 3
v -2 1 2
v -2 2 2
v -2 4 2
v -2 5 2
v -1 2 2
v -1 4 2
v 1 2 2
v 1 4 2
v 2 1 2
v 2 2 2
v 2 4 2
v 2 5 2
v -2 1 -2
v -2 2 -2
v -2 4 -2
v -2 5 -2
v -1 2 -2
v -1 4 -2
v 1 2 -2
v 1 4 -2
v 2 1 -2
v 2 2 -2
v 2 4 -2
v 2 5 -2
v -3 0 -3
v -3 1 -3
v -3 5 -3
v -3 6 -3
v 3 0 -3
v 3 1 -3
v 3 5 -3
v 3 6 -3
v -3 0 3
v 3 0 3
v -2 0 2
v 2 0 2
v -1 0 1
v 1 0 1
v -1 0 -1
v 1 0 -1
v -2 0 -2
v 2 0 -2
v -3 0 -3
v 3 0 -3
v -3 5 3
v 3 5 3
v -2 5 2
v 2 5 2
v -2 5 -2
v 2 5 -2
v -3 5 -3
v 3 5 -3
v -3 1 3
v 3 1 3
v -2 1 2
v 2 1 2
v -2 1 -2
v 2 1 -2
v -3 1 -3
v 3 1 -3
v -3 6 3
v 3 6 3
v -2 6 2
v 2 6 2
v -1 6 1
v 1 6 1
v -1 6 -1
v 1 6 -1
v -2 6 -2
v 2 6 -2
v -3 6 -3
v 3 6 -3

# faces
f 3/3/1 2/3/1 1/3/1
f 4/3/1 2/3/1 3/3/1
f 7/3/1 6/3/1 5/3/1
f 8/3/1 6/3/1 7/3/1
f 11/3/1 10/3/1 9/3/1
f 12/3/1 10/3/1 11/3/1
f 13/3/1 10/3/1 12/3/1
f 14/3/1 10/3/1 13/3/1
f 15/2/1 12/2/1 11/2/1
f 16/1/1 13/1/1 12/1/1
f 16/2/1 12/2/1 15/2/1
f 17/2/1 14/2/1 13/2/1
f 17/1/1 13/1/1 16/1/1
f 18/2/1 14/2/1 17/2/1
f 19/3/1 16/3/1 15/3/1
f 19/3/1 17/3/1 16/3/1
f 19/3/1 18/3/1 17/3/1
f 20/3/1 18/3/1 19/3/1
f 21/3/2 22/3/2 23/3/2
f 23/3/2 22/3/2 24/3/2
f 24/3/2 22/3/2 25/3/2
f 25/3/2 22/3/2 26/3/2
f 23/2/2 24/2/2 27/2/2
f 24/1/2 25/1/2 28/1/2
f 27/2/2 24/2/2 28/2/2
f 25/2/2 26/2/2 29/2/2
f 28/1/2 25/1/2 29/1/2
f 29/2/2 26/2/2 30/2/2
f 27/3/2 28/3/2 31/3/2
f 28/3/2 29/3/2 31/3/2
f 29/3/2 30/3/2 31/3/2
f 31/3/2 30/3/2 32/3/2
f 33/3/2 34/3/2 35/3/2
f 35/3/2 34/3/2 36/3/2
f 37/3/2 38/3/2 39/3/2
f 39/3/2 38/3/2 40/3/2
f 45/3/3 42/3/3 41/3/3
f 46/3/3 42/3/3 45/3/3
f 47/3/3 44/3/3 43/3/3
f 48/3/3 44/3/3 47/3/3
f 53/3/3 50/3/3 49/3/3
f 53/2/3 51/2/3 50/2/3
f 54/3/3 52/3/3 51/3/3
f 54/2/3 51/2/3 53/2/3
f 55/3/3 53/3/3 49/3/3
f 55/1/3 54/1/3 53/1/3
f 56/3/3 52/3/3 54/3/3
f 56/1/3 54/1/3 55/1/3
f 57/3/3 55/3/3 49/3/3
f 58/2/3 56/2/3 55/2/3
f 58/3/3 55/3/3 57/3/3
f 59/3/3 52/3/3 56/3/3
f 59/2/3 56/2/3 58/2/3
f 60/3/3 52/3/3 59/3/3
f 61/3/4 62/3/4 65/3/4
f 62/2/4 63/2/4 65/2/4
f 63/3/4 64/3/4 66/3/4
f 65/2/4 63/2/4 66/2/4
f 61/3/4 65/3/4 67/3/4
f 65/1/4 66/1/4 67/1/4
f 66/3/4 64/3/4 68/3/4
f 67/1/4 66/1/4 68/1/4
f 61/3/4 67/3/4 69/3/4
f 67/2/4 68/2/4 70/2/4
f 69/3/4 67/3/4 70/3/4
f 68/3/4 64/3/4 71/3/4
f 70/2/4 68/2/4 71/2/4
f 71/3/4 64/3/4 72/3/4
f 73/3/4 74/3/4 77/3/4
f 77/3/4 74/3/4 78/3/4
f 75/3/4 76/3/4 79/3/4
f 79/3/4 76/3/4 80/3/4
f 83/3/5 82/3/5 81/3/5
f 84/3/5 82/3/5 83/3/5
f 85/2/5 84/2/5 83/2/5
f 86/2/5 84/2/5 85/2/5
f 87/2/5 85/2/5 83/2/5
f 87/1/5 86/1/5 85/1/5
f 88/2/5 84/2/5 86/2/5
f 88/1/5 86/1/5 87/1/5
f 89/3/5 83/3/5 81/3/5
f 89/2/5 87/2/5 83/2/5
f 89/2/5 88/2/5 87/2/5
f 90/2/5 84/2/5 88/2/5
f 90/2/5 88/2/5 89/2/5
f 90/3/5 82/3/5 84/3/5
f 91/3/5 89/3/5 81/3/5
f 91/3/5 90/3/5 89/3/5
f 92/3/5 82/3/5 90/3/5
f 92/3/5 90/3/5 91/3/5
f 95/3/5 94/3/5 93/3/5
f 96/3/5 94/3/5 95/3/5
f 97/3/5 95/3/5 93/3/5
f 98/3/5 94/3/5 96/3/5
f 99/3/5 97/3/5 93/3/5
f 99/3/5 98/3/5 97/3/5
f 100/3/5 94/3/5 98/3/5
f 100/3/5 98/3/5 99/3/5
f 101/3/6 102/3/6 103/3/6
f 103/3/6 102/3/6 104/3/6
f 101/3/6 103/3/6 105/3/6
f 104/3/6 102/3/6 106/3/6
f 101/3/6 105/3/6 107/3/6
f 105/3/6 106/3/6 107/3/6
f 106/3/6 102/3/6 108/3/6
f 107/3/6 106/3/6 108/3/6
f 109/3/6 110/3/6 111/3/6
f 111/3/6 110/3/6 112/3/6
f 111/2/6 112/2/6 113/2/6
f 113/2/6 112/2/6 114/2/6
f 111/2/6 113/2/6 115/2/6
f 113/1/6 114/1/6 115/1/6
f 114/2/6 112/2/6 116/2/6
f 115/1/6 114/1/6 116/1/6
f 109/3/6 111/3/6 117/3/6
f 111/2/6 115/2/6 117/2/6
f 115/2/6 116/2/6 117/2/6
f 116/2/6 112/2/6 118/2/6
f 117/2/6 116/2/6 118/2/6
f 112/3/6 110/3/6 118/3/6
f 109/3/6 117/3/6 119/3/6
f 117/3/6 118/3/6 119/3/6
f 118/3/6 110/3/6 120/3/6
f 119/3/6 118/3/6 120/3/6
